HIERARCHY
ROOT pelvis
{
	OFFSET 0.003123 -0.351407 0.012037
	CHANNELS 6 Xposition Yposition Zposition Zrotation Yrotation Xrotation 
	JOINT left_hip
	{
		OFFSET 0.058189 -0.092763 -0.026001
		CHANNELS 3 Zrotation Yrotation Xrotation
		JOINT left_knee
		{
			OFFSET 0.054695 -0.378753 -0.009396
			CHANNELS 3 Zrotation Yrotation Xrotation
			JOINT left_ankle
			{
				OFFSET -0.043453 -0.403059 -0.031876
				CHANNELS 3 Zrotation Yrotation Xrotation
				JOINT left_foot
				{
					OFFSET 0.047257 -0.057997 0.118216
					CHANNELS 3 Zrotation Yrotation Xrotation
					End Site
					{
						OFFSET 0.000000 0.000000 0.000000
					}
				}
			}
		}
	}
	JOINT right_hip
	{
		OFFSET -0.063267 -0.103908 -0.021250
		CHANNELS 3 Zrotation Yrotation Xrotation
		JOINT right_knee
		{
			OFFSET -0.044210 -0.362380 -0.016824
			CHANNELS 3 Zrotation Yrotation Xrotation
			JOINT right_ankle
			{
				OFFSET 0.015417 -0.410728 -0.020192
				CHANNELS 3 Zrotation Yrotation Xrotation
				JOINT right_foot
				{
					OFFSET -0.038812 -0.058328 0.119049
					CHANNELS 3 Zrotation Yrotation Xrotation
					End Site
					{
						OFFSET 0.000000 0.000000 0.000000
					}
				}
			}
		}
	}
	JOINT spine_1
	{
		OFFSET -0.002763 0.109891 -0.027618
		CHANNELS 3 Zrotation Yrotation Xrotation
		JOINT spine_2
		{
			OFFSET 0.009448 0.131853 -0.005940
			CHANNELS 3 Zrotation Yrotation Xrotation
			JOINT spine_3
			{
				OFFSET -0.011330 0.052235 0.028447
				CHANNELS 3 Zrotation Yrotation Xrotation
				JOINT neck
				{
					OFFSET -0.012164 0.165167 -0.031615
					CHANNELS 3 Zrotation Yrotation Xrotation
					JOINT head
					{
						OFFSET 0.024783 0.160452 0.020737
						CHANNELS 3 Zrotation Yrotation Xrotation
						End Site
						{
							OFFSET 0.000000 0.000000 0.000000
						}
					}
				}
				JOINT left_collar
				{
					OFFSET 0.046364 0.084944 -0.007220
					CHANNELS 3 Zrotation Yrotation Xrotation
					JOINT left_shoulder
					{
						OFFSET 0.119239 0.057728 -0.015461
						CHANNELS 3 Zrotation Yrotation Xrotation
						JOINT left_elbow
						{
							OFFSET 0.254123 -0.072151 -0.042459
							CHANNELS 3 Zrotation Yrotation Xrotation
							JOINT left_wrist
							{
								OFFSET 0.251987 0.023221 -0.002472
								CHANNELS 3 Zrotation Yrotation Xrotation
								JOINT left_index_1
								{
									OFFSET 0.101902 -0.008688 0.019351
									CHANNELS 3 Zrotation Yrotation Xrotation
									JOINT left_index_2
									{
										OFFSET 0.030149 -0.011154 0.001151
										CHANNELS 3 Zrotation Yrotation Xrotation
										JOINT left_index_3
										{
											OFFSET 0.006504 -0.021577 -0.002433
											CHANNELS 3 Zrotation Yrotation Xrotation
											End Site
											{
												OFFSET 0.000000 0.000000 0.000000
											}
										}
									}
								}
								JOINT left_middle_1
								{
									OFFSET 0.109398 -0.006328 -0.003981
									CHANNELS 3 Zrotation Yrotation Xrotation
									JOINT left_middle_2
									{
										OFFSET 0.026472 -0.015218 -0.004641
										CHANNELS 3 Zrotation Yrotation Xrotation
										JOINT left_middle_3
										{
											OFFSET 0.005022 -0.023347 -0.001911
											CHANNELS 3 Zrotation Yrotation Xrotation
											End Site
											{
												OFFSET 0.000000 0.000000 0.000000
											}
										}
									}
								}
								JOINT left_pinky_1
								{
									OFFSET 0.084047 -0.014539 -0.043750
									CHANNELS 3 Zrotation Yrotation Xrotation
									JOINT left_pinky_2
									{
										OFFSET 0.012124 -0.014448 -0.005375
										CHANNELS 3 Zrotation Yrotation Xrotation
										JOINT left_pinky_3
										{
											OFFSET 0.003798 -0.018853 0.000167
											CHANNELS 3 Zrotation Yrotation Xrotation
											End Site
											{
												OFFSET 0.000000 0.000000 0.000000
											}
										}
									}
								}
								JOINT left_ring_1
								{
									OFFSET 0.097444 -0.009268 -0.027345
									CHANNELS 3 Zrotation Yrotation Xrotation
									JOINT left_ring_2
									{
										OFFSET 0.023561 -0.016057 -0.001895
										CHANNELS 3 Zrotation Yrotation Xrotation
										JOINT left_ring_3
										{
											OFFSET 0.004257 -0.023548 0.000814
											CHANNELS 3 Zrotation Yrotation Xrotation
											End Site
											{
												OFFSET 0.000000 0.000000 0.000000
											}
										}
									}
								}
								JOINT left_thumb_1
								{
									OFFSET 0.040636 -0.017977 0.025611
									CHANNELS 3 Zrotation Yrotation Xrotation
									JOINT left_thumb_2
									{
										OFFSET 0.021637 -0.017639 0.011623
										CHANNELS 3 Zrotation Yrotation Xrotation
										JOINT left_thumb_3
										{
											OFFSET 0.024002 -0.008356 0.006548
											CHANNELS 3 Zrotation Yrotation Xrotation
											End Site
											{
												OFFSET 0.000000 0.000000 0.000000
											}
										}
									}
								}
							}
						}
					}
				}
				JOINT right_collar
				{
					OFFSET -0.047695 0.084339 -0.013400
					CHANNELS 3 Zrotation Yrotation Xrotation
					JOINT right_shoulder
					{
						OFFSET -0.102578 0.053524 -0.012669
						CHANNELS 3 Zrotation Yrotation Xrotation
						JOINT right_elbow
						{
							OFFSET -0.271150 -0.036492 -0.026467
							CHANNELS 3 Zrotation Yrotation Xrotation
							JOINT right_wrist
							{
								OFFSET -0.249267 -0.004533 -0.015325
								CHANNELS 3 Zrotation Yrotation Xrotation
								JOINT right_index_1
								{
									OFFSET -0.099881 -0.011783 0.019600
									CHANNELS 3 Zrotation Yrotation Xrotation
									JOINT right_index_2
									{
										OFFSET -0.030148 -0.011154 0.001151
										CHANNELS 3 Zrotation Yrotation Xrotation
										JOINT right_index_3
										{
											OFFSET -0.006505 -0.021577 -0.002432
											CHANNELS 3 Zrotation Yrotation Xrotation
											End Site
											{
												OFFSET 0.000000 0.000000 0.000000
											}
										}
									}
								}
								JOINT right_middle_1
								{
									OFFSET -0.107376 -0.009422 -0.003734
									CHANNELS 3 Zrotation Yrotation Xrotation
									JOINT right_middle_2
									{
										OFFSET -0.026472 -0.015218 -0.004641
										CHANNELS 3 Zrotation Yrotation Xrotation
										JOINT right_middle_3
										{
											OFFSET -0.005022 -0.023347 -0.001911
											CHANNELS 3 Zrotation Yrotation Xrotation
											End Site
											{
												OFFSET 0.000000 0.000000 0.000000
											}
										}
									}
								}
								JOINT right_pinky_1
								{
									OFFSET -0.082027 -0.017634 -0.043503
									CHANNELS 3 Zrotation Yrotation Xrotation
									JOINT right_pinky_2
									{
										OFFSET -0.012123 -0.014448 -0.005374
										CHANNELS 3 Zrotation Yrotation Xrotation
										JOINT right_pinky_3
										{
											OFFSET -0.003798 -0.018852 0.000167
											CHANNELS 3 Zrotation Yrotation Xrotation
											End Site
											{
												OFFSET 0.000000 0.000000 0.000000
											}
										}
									}
								}
								JOINT right_ring_1
								{
									OFFSET -0.095423 -0.012362 -0.027099
									CHANNELS 3 Zrotation Yrotation Xrotation
									JOINT right_ring_2
									{
										OFFSET -0.023561 -0.016057 -0.001895
										CHANNELS 3 Zrotation Yrotation Xrotation
										JOINT right_ring_3
										{
											OFFSET -0.004257 -0.023548 0.000816
											CHANNELS 3 Zrotation Yrotation Xrotation
											End Site
											{
												OFFSET 0.000000 0.000000 0.000000
											}
										}
									}
								}
								JOINT right_thumb_1
								{
									OFFSET -0.038613 -0.021074 0.025861
									CHANNELS 3 Zrotation Yrotation Xrotation
									JOINT right_thumb_2
									{
										OFFSET -0.021636 -0.017639 0.011623
										CHANNELS 3 Zrotation Yrotation Xrotation
										JOINT right_thumb_3
										{
											OFFSET -0.024004 -0.008353 0.006547
											CHANNELS 3 Zrotation Yrotation Xrotation
											End Site
											{
												OFFSET 0.000000 0.000000 0.000000
											}
										}
									}
								}
							}
						}
					}
				}
			}
		}
	}
}
MOTION
Frames: 5
Frame Time: 0.050000
0.001263 0.955284 0.012466 -0.192516 -5.662980 -5.929828 1.358311 1.045099 7.561643 0.926553 -0.275206 1.632262 -2.688476 -2.625023 3.640051 0.000000 0.000000 0.000000 0.646391 -0.525075 4.053270 -2.716920 0.551565 6.870785 1.948771 3.544723 0.509540 0.000000 0.000000 0.000000 -0.074563 -0.978415 13.466451 -4.973332 -2.586563 -19.886269 7.006423 -6.037611 25.658056 0.744747 0.374661 -4.073043 0.000000 0.000000 0.000000 2.784003 -3.355582 1.572024 -36.434840 -17.713260 -4.723775 -1.686487 -63.958722 9.985641 16.220578 -5.920305 19.461317 -15.030980 5.624824 1.198577 -0.927178 4.285978 11.685219 0.000000 0.000000 0.000000 -10.183186 -0.825394 -2.466589 -22.082534 2.237773 -3.900366 0.000000 0.000000 0.000000 15.966820 -18.017429 -11.895003 -41.312066 -10.897911 -22.970037 0.000000 0.000000 0.000000 -6.912046 -2.991178 -2.451741 -36.279436 -2.555872 -12.022464 0.000000 0.000000 0.000000 10.597730 30.290851 27.924152 -3.958133 -16.271685 -3.699487 0.000000 0.000000 0.000000 -0.946948 -2.656973 -1.169402 58.420614 6.427928 -7.335124 15.268545 36.301016 3.399346 8.784773 -5.583937 14.133566 21.664490 -5.977897 1.159338 16.787011 -10.311311 10.832119 0.000000 0.000000 0.000000 20.426323 0.048800 -4.228071 32.796300 -3.390109 -4.782533 0.000000 0.000000 0.000000 4.303924 15.565428 -16.120284 51.391554 9.146476 -17.894390 0.000000 0.000000 0.000000 20.001129 2.817305 -3.720413 42.453016 6.414392 -15.749488 0.000000 0.000000 0.000000 -5.545458 -30.234720 31.070387 -5.597357 18.180112 -8.570575 0.000000 0.000000 0.000000 
0.000792 0.955284 0.013786 -0.250768 -5.822326 -6.360548 1.451251 1.098367 7.956277 0.768371 -0.326192 2.235604 -2.292215 -2.364256 2.983515 0.000000 0.000000 0.000000 0.679253 -0.610671 4.757492 -2.687262 0.531181 6.617921 2.038700 3.748391 0.479804 0.000000 0.000000 0.000000 -0.130056 -1.042325 14.556906 -5.067009 -2.643028 -20.229948 7.367130 -5.323477 25.223790 1.160062 0.272893 -3.749671 0.000000 0.000000 0.000000 1.966124 -1.586287 0.759869 -36.622066 -10.464463 -5.187219 -19.136004 -70.083577 23.625224 16.203461 -6.799909 21.954663 -15.018119 5.683752 1.092843 0.569887 3.964416 11.698287 0.000000 0.000000 0.000000 -9.173710 -0.905480 -2.372536 -21.725759 2.721306 -3.472610 0.000000 0.000000 0.000000 17.389273 -17.281593 -9.997981 -40.366533 -10.916615 -25.356622 0.000000 0.000000 0.000000 -5.248052 -3.057060 -2.373823 -37.004326 -1.539604 -11.863026 0.000000 0.000000 0.000000 10.868802 30.866725 28.567826 -3.653759 -17.382612 -4.210280 0.000000 0.000000 0.000000 -0.847841 -2.975097 -1.354141 58.248015 5.506062 -7.486255 15.171748 36.191791 3.374181 8.269183 -5.062504 12.710228 21.847237 -4.103921 0.774432 16.588213 -9.374914 10.086603 0.000000 0.000000 0.000000 20.445817 -1.061196 -3.730651 28.969311 -0.734342 -8.171638 0.000000 0.000000 0.000000 4.022745 13.532409 -14.522575 46.333132 11.069758 -22.514616 0.000000 0.000000 0.000000 20.095033 5.733011 -4.945023 41.874437 3.928911 -10.113501 0.000000 0.000000 0.000000 -5.714371 -29.012421 29.473300 -0.981736 14.437742 -5.066297 0.000000 0.000000 0.000000 
0.000616 0.954962 0.016426 -0.330077 -6.337987 -6.116190 1.488179 1.082472 7.832583 0.595778 -0.349642 2.627696 -1.778840 -1.799036 2.420428 0.000000 0.000000 0.000000 0.666742 -0.602506 4.707471 -2.611635 0.510581 6.450041 2.219412 4.189843 0.385253 0.000000 0.000000 0.000000 -0.070091 -1.025677 14.163897 -5.219250 -2.593929 -20.132520 7.559665 -4.573194 25.424446 1.666210 0.296355 -4.360448 0.000000 0.000000 0.000000 1.220707 -0.160489 0.079704 -36.421611 -3.789046 -5.520230 -49.273511 -73.240559 49.138512 15.874703 -7.754105 24.760459 -15.841702 5.895021 0.915018 -0.216193 5.359188 13.854974 0.000000 0.000000 0.000000 -9.501780 -1.732701 -2.843124 -23.211283 4.701153 -0.103910 0.000000 0.000000 0.000000 18.972216 -18.049377 -9.637566 -45.437918 -12.671724 -26.222515 0.000000 0.000000 0.000000 -5.267360 -3.435082 -2.583283 -39.385224 -0.112948 -10.775310 0.000000 0.000000 0.000000 10.465969 31.496567 29.192327 -3.315939 -16.630019 -4.092241 0.000000 0.000000 0.000000 -0.442989 -3.384807 -1.657373 57.863780 5.425977 -7.354801 15.304211 36.074083 3.405138 7.695306 -6.185887 13.754662 20.424656 -3.017888 0.561246 19.222532 -10.663385 10.428128 0.000000 0.000000 0.000000 19.967385 0.354926 -4.225541 31.715625 -0.663870 -9.060570 0.000000 0.000000 0.000000 3.703275 14.662218 -15.346870 46.326708 10.738935 -22.407151 0.000000 0.000000 0.000000 19.136598 6.594388 -5.284678 41.257646 3.461539 -9.863283 0.000000 0.000000 0.000000 -6.651385 -29.456839 30.097136 -3.187620 19.152195 -7.739792 0.000000 0.000000 0.000000 
0.000851 0.954639 0.019066 -0.403621 -6.306333 -5.673186 1.498468 1.055602 7.665680 0.586828 -0.329707 2.457649 -1.654489 -1.737200 2.175245 0.000000 0.000000 0.000000 0.734957 -0.545443 4.167678 -2.613356 0.537977 6.852682 2.116463 4.104302 0.239690 0.000000 0.000000 0.000000 0.031389 -0.964271 13.060564 -5.404685 -2.296789 -19.153160 7.483982 -4.726340 25.173999 1.962946 0.264672 -4.429123 0.000000 0.000000 0.000000 0.424800 1.712102 -0.850129 -35.715896 1.415359 -5.584814 -82.560990 -70.160656 76.305060 15.069081 -8.887411 27.982941 -16.751405 5.792677 0.574776 2.481936 5.565021 15.925192 0.000000 0.000000 0.000000 -9.282682 -0.532445 -2.400391 -23.459325 4.917549 -1.119468 0.000000 0.000000 0.000000 21.374064 -18.906463 -9.643763 -51.359464 -12.234068 -24.763280 0.000000 0.000000 0.000000 -4.524164 -1.850230 -1.945956 -41.571802 1.611319 -9.868358 0.000000 0.000000 0.000000 10.729958 32.748302 30.277890 -2.636910 -18.191942 -5.007721 0.000000 0.000000 0.000000 -0.151750 -3.412899 -1.738951 57.526826 6.076838 -7.062887 14.930645 34.964113 3.145340 7.936719 -5.723313 14.153942 21.907331 -5.293663 0.983054 17.192676 -8.056461 7.146914 0.000000 0.000000 0.000000 21.093027 1.087865 -4.770894 31.169156 -3.794342 -3.450820 0.000000 0.000000 0.000000 4.311998 15.716543 -16.275204 45.828687 10.238933 -22.088407 0.000000 0.000000 0.000000 20.980830 3.879219 -4.271813 40.453636 5.331914 -14.054013 0.000000 0.000000 0.000000 -5.558401 -29.072681 29.721900 -2.365375 15.859062 -6.142818 0.000000 0.000000 0.000000 
0.001322 0.954639 0.020386 -0.373321 -6.268145 -5.672394 1.457008 1.029050 7.464007 0.507779 -0.377644 2.983299 -1.572186 -1.704511 1.999481 0.000000 0.000000 0.000000 0.641653 -0.561114 4.364857 -2.586334 0.521813 6.654521 2.120950 4.097831 0.258265 0.000000 0.000000 0.000000 -0.042995 -0.959498 13.060588 -5.515969 -2.265434 -19.190165 7.482495 -4.725260 25.171271 1.986809 0.258055 -4.409677 0.000000 0.000000 0.000000 -0.075289 2.413052 -1.213303 -35.456693 5.270525 -5.635372 -102.085983 -63.739577 89.495538 13.675444 -10.161691 31.517353 -17.444465 6.757653 0.453990 4.115015 5.866525 17.242823 0.000000 0.000000 0.000000 -8.714991 -0.081930 -2.171093 -23.543145 6.732566 1.754003 0.000000 0.000000 0.000000 24.348082 -17.700121 -8.129504 -56.015568 -11.947111 -25.647275 0.000000 0.000000 0.000000 -2.841535 -1.400283 -1.696086 -43.975418 4.168616 -7.866347 0.000000 0.000000 0.000000 10.938068 33.811961 31.019182 -2.697277 -18.095876 -4.998388 0.000000 0.000000 0.000000 -0.472364 -2.264530 -1.072930 57.635679 5.873856 -7.163248 14.642297 35.129257 3.097755 7.750228 -5.317569 13.316294 21.392015 -1.782909 0.233145 16.280698 -10.421776 11.719419 0.000000 0.000000 0.000000 20.371281 1.370230 -4.677257 29.164395 -0.461273 -8.902365 0.000000 0.000000 0.000000 3.238741 15.766978 -16.477450 44.913863 10.425987 -22.144592 0.000000 0.000000 0.000000 20.208756 4.123880 -4.249144 39.796165 5.725351 -14.442728 0.000000 0.000000 0.000000 -4.688820 -28.527181 28.893209 -5.703209 17.235249 -8.257262 0.000000 0.000000 0.000000 
